<?xml version="1.0" encoding="utf-8"?>
<!-- Generator: Adobe Illustrator 16.0.0, SVG Export Plug-In . SVG Version: 6.00 Build 0)  -->
<!DOCTYPE svg PUBLIC "-//W3C//DTD SVG 1.1//EN" "http://www.w3.org/Graphics/SVG/1.1/DTD/svg11.dtd">
<svg version="1.1" id="Layer_1" xmlns="http://www.w3.org/2000/svg" xmlns:xlink="http://www.w3.org/1999/xlink" x="0px" y="0px"
	 width="24px" height="24px" viewBox="0 0 24 24" enable-background="new 0 0 24 24" xml:space="preserve">
<path fill="#E8C207" d="M11.996,1.333c0.384,0,0.733,0.216,0.901,0.563l2.857,5.887l6.384,0.942
	c0.375,0.054,0.688,0.316,0.804,0.679c0.117,0.362,0.021,0.754-0.246,1.021l-4.629,4.592l1.092,6.483
	c0.063,0.375-0.092,0.754-0.4,0.979c-0.308,0.226-0.721,0.25-1.054,0.071l-5.708-3.05l-5.705,3.046
	c-0.337,0.179-0.746,0.154-1.054-0.071c-0.308-0.225-0.466-0.604-0.404-0.979l1.091-6.483l-4.629-4.588
	C1.025,10.158,0.933,9.763,1.05,9.404s0.429-0.621,0.804-0.679l6.383-0.942l2.858-5.887C11.267,1.55,11.612,1.333,11.996,1.333z
	 M11.996,4.625L9.808,9.133C9.663,9.429,9.383,9.638,9.054,9.688l-4.929,0.725l3.579,3.546c0.229,0.229,0.337,0.554,0.283,0.875
	L7.142,19.82l4.383-2.342c0.296-0.158,0.65-0.158,0.942,0l4.383,2.342l-0.842-4.982c-0.054-0.321,0.051-0.646,0.283-0.875
	l3.58-3.546l-4.93-0.729c-0.324-0.05-0.607-0.254-0.754-0.554L11.996,4.625z"/>
</svg>
