<?xml version="1.0" encoding="utf-8"?>
<!-- Generator: Adobe Illustrator 16.0.0, SVG Export Plug-In . SVG Version: 6.00 Build 0)  -->
<!DOCTYPE svg PUBLIC "-//W3C//DTD SVG 1.1//EN" "http://www.w3.org/Graphics/SVG/1.1/DTD/svg11.dtd">
<svg version="1.1" id="Layer_1" xmlns="http://www.w3.org/2000/svg" xmlns:xlink="http://www.w3.org/1999/xlink" x="0px" y="0px"
	 width="24px" height="24px" viewBox="0 0 24 24" enable-background="new 0 0 24 24" xml:space="preserve">
<path fill="#E8C207" d="M13.204,2.083c-0.221-0.458-0.688-0.75-1.2-0.75c-0.513,0-0.975,0.292-1.2,0.75L8.125,7.596L2.142,8.479
	c-0.5,0.075-0.917,0.425-1.071,0.904S1.042,10.392,1.4,10.746l4.342,4.295l-1.025,6.071c-0.083,0.5,0.125,1.009,0.538,1.304
	c0.412,0.297,0.958,0.334,1.408,0.097l5.346-2.854l5.345,2.854c0.451,0.237,0.996,0.204,1.409-0.097
	c0.412-0.299,0.62-0.804,0.537-1.304l-1.028-6.071l4.341-4.295c0.358-0.354,0.487-0.884,0.329-1.363s-0.57-0.829-1.07-0.904
	l-5.988-0.883L13.204,2.083z"/>
</svg>
